# xmcd
#
# Track frame offsets:
#	150
#	18035
#	33525
#	50556
#	77582
#	97810
#	122485
#	152892
#	180677
#	218117
#
# Disc length: 3186
#
# Revision: 1
# Processed by: cddbd v1.5.1PL0 Copyright (c) Steve Scherf et al.
# Submitted via: CDex 1.51
# Normalized: r0:DSETVAR1,TDELIM( - )
#
DISCID=740c700a
DTITLE=Various Artist - Las Estrellas De La Fania Vol. 1
DYEAR=1900
DGENRE=Salsa
TTITLE0=Ismael Rivera - Las Tumbas
TTITLE1=Willie Colón - Cheche Colé
TTITLE2=Celia Cruz - Cúcala
TTITLE3=Monguito - Sofrito
TTITLE4=Richie Ray and Bobby Cruz - Richie's Jala Jala
TTITLE5=Cheo Feliciano - El Pito
TTITLE6=Hector Lavoe - Periódico De Ayer
TTITLE7=El Conde Rodríguez - El Cantar De Los Piñales
TTITLE8=Johnny Pacheco - El Faisán
TTITLE9=Angel Canales - Hace Tiempo
EXTD=
EXTT0=
EXTT1=
EXTT2=
EXTT3=
EXTT4=
EXTT5=
EXTT6=
EXTT7=
EXTT8=
EXTT9=
PLAYORDER=
